<?xml version="1.0" encoding="UTF-8"?>
<svg xmlns="http://www.w3.org/2000/svg" xmlns:xlink="http://www.w3.org/1999/xlink" width="24px" height="24px" viewBox="0 0 24 24" version="1.1">
<defs>
<filter id="alpha" filterUnits="objectBoundingBox" x="0%" y="0%" width="100%" height="100%">
  <feColorMatrix type="matrix" in="SourceGraphic" values="0 0 0 0 1 0 0 0 0 1 0 0 0 0 1 0 0 0 1 0"/>
</filter>
<mask id="mask0">
  <g filter="url(#alpha)">
<rect x="0" y="0" width="24" height="24" style="fill:rgb(0%,0%,0%);fill-opacity:0.988;stroke:none;"/>
  </g>
</mask>
<linearGradient id="linear0" gradientUnits="userSpaceOnUse" x1="353.678741" y1="518.327698" x2="384.385834" y2="545.859924" gradientTransform="matrix(0.751457,0,0,0.706383,-264.847706,-363.670337)">
<stop offset="0" style="stop-color:rgb(0%,0%,50.196081%);stop-opacity:1;"/>
<stop offset="1" style="stop-color:rgb(0%,100%,100%);stop-opacity:1;"/>
</linearGradient>
<clipPath id="clip1">
  <rect x="0" y="0" width="24" height="24"/>
</clipPath>
<g id="surface5" clip-path="url(#clip1)">
<path style=" stroke:none;fill-rule:nonzero;fill:url(#linear0);" d="M 1.414062 2.09375 L 22.589844 2.09375 C 23.371094 2.09375 24 2.726562 24 3.507812 L 24 20.503906 C 24 21.28125 23.371094 21.914062 22.589844 21.914062 L 1.414062 21.914062 C 0.632812 21.914062 0.00390625 21.28125 0.00390625 20.503906 L 0.00390625 3.507812 C 0.00390625 2.726562 0.632812 2.09375 1.414062 2.09375 Z M 1.414062 2.09375 "/>
</g>
</defs>
<g id="surface1">
<use xlink:href="#surface5" mask="url(#mask0)"/>
<path style=" stroke:none;fill-rule:nonzero;fill:rgb(97.254902%,88.235295%,88.235295%);fill-opacity:1;" d="M 18.253906 8.722656 C 18.101562 8.652344 17.925781 8.675781 17.796875 8.785156 L 15.28125 10.953125 L 15.28125 8.480469 C 15.28125 8.238281 15.085938 8.039062 14.84375 8.039062 L 5.941406 8.039062 C 5.699219 8.039062 5.503906 8.238281 5.503906 8.480469 L 5.503906 15.527344 C 5.503906 15.769531 5.699219 15.96875 5.941406 15.96875 L 14.84375 15.96875 C 15.085938 15.96875 15.285156 15.769531 15.285156 15.527344 L 15.285156 13.058594 L 17.796875 15.222656 C 17.925781 15.332031 18.101562 15.355469 18.253906 15.285156 C 18.40625 15.21875 18.503906 15.066406 18.503906 14.898438 L 18.503906 9.109375 C 18.503906 8.941406 18.40625 8.789062 18.253906 8.722656 "/>
</g>
</svg>
