<?xml version="1.0" encoding="UTF-8"?>
<svg xmlns="http://www.w3.org/2000/svg" xmlns:xlink="http://www.w3.org/1999/xlink" width="16px" height="16px" viewBox="0 0 16 16" version="1.1">
<defs>
<filter id="alpha" filterUnits="objectBoundingBox" x="0%" y="0%" width="100%" height="100%">
  <feColorMatrix type="matrix" in="SourceGraphic" values="0 0 0 0 1 0 0 0 0 1 0 0 0 0 1 0 0 0 1 0"/>
</filter>
<mask id="mask0">
  <g filter="url(#alpha)">
<rect x="0" y="0" width="16" height="16" style="fill:rgb(0%,0%,0%);fill-opacity:0.988;stroke:none;"/>
  </g>
</mask>
<linearGradient id="linear0" gradientUnits="userSpaceOnUse" x1="353.678741" y1="518.327698" x2="384.385834" y2="545.859924" gradientTransform="matrix(0.500972,0,0,0.470922,-176.565137,-242.446891)">
<stop offset="0" style="stop-color:rgb(0%,0%,50.196081%);stop-opacity:1;"/>
<stop offset="1" style="stop-color:rgb(0%,100%,100%);stop-opacity:1;"/>
</linearGradient>
<clipPath id="clip1">
  <rect x="0" y="0" width="16" height="16"/>
</clipPath>
<g id="surface5" clip-path="url(#clip1)">
<path style=" stroke:none;fill-rule:nonzero;fill:url(#linear0);" d="M 0.945312 1.394531 L 15.058594 1.394531 C 15.578125 1.394531 16 1.816406 16 2.335938 L 16 13.667969 C 16 14.1875 15.578125 14.609375 15.058594 14.609375 L 0.945312 14.609375 C 0.421875 14.609375 0 14.1875 0 13.667969 L 0 2.335938 C 0 1.816406 0.421875 1.394531 0.945312 1.394531 Z M 0.945312 1.394531 "/>
</g>
</defs>
<g id="surface1">
<use xlink:href="#surface5" mask="url(#mask0)"/>
<path style=" stroke:none;fill-rule:nonzero;fill:rgb(97.254902%,88.235295%,88.235295%);fill-opacity:1;" d="M 12.167969 5.816406 C 12.066406 5.769531 11.949219 5.785156 11.867188 5.859375 L 10.1875 7.300781 L 10.1875 5.65625 C 10.1875 5.492188 10.058594 5.359375 9.894531 5.359375 L 3.960938 5.359375 C 3.800781 5.359375 3.667969 5.492188 3.667969 5.65625 L 3.667969 10.351562 C 3.667969 10.511719 3.800781 10.644531 3.960938 10.644531 L 9.894531 10.644531 C 10.058594 10.644531 10.1875 10.511719 10.1875 10.351562 L 10.1875 8.703125 L 11.867188 10.148438 C 11.949219 10.222656 12.070312 10.238281 12.167969 10.191406 C 12.269531 10.144531 12.335938 10.042969 12.335938 9.933594 L 12.335938 6.074219 C 12.335938 5.960938 12.269531 5.859375 12.167969 5.8125 "/>
</g>
</svg>
