<?xml version="1.0" encoding="UTF-8"?>
<svg xmlns="http://www.w3.org/2000/svg" xmlns:xlink="http://www.w3.org/1999/xlink" width="32px" height="32px" viewBox="0 0 32 32" version="1.1">
<defs>
<filter id="alpha" filterUnits="objectBoundingBox" x="0%" y="0%" width="100%" height="100%">
  <feColorMatrix type="matrix" in="SourceGraphic" values="0 0 0 0 1 0 0 0 0 1 0 0 0 0 1 0 0 0 1 0"/>
</filter>
<mask id="mask0">
  <g filter="url(#alpha)">
<rect x="0" y="0" width="32" height="32" style="fill:rgb(0%,0%,0%);fill-opacity:0.988;stroke:none;"/>
  </g>
</mask>
<linearGradient id="linear0" gradientUnits="userSpaceOnUse" x1="353.678741" y1="518.327698" x2="384.385834" y2="545.859924" gradientTransform="matrix(1.001943,0,0,0.941844,-353.130274,-484.893782)">
<stop offset="0" style="stop-color:rgb(0%,0%,50.196081%);stop-opacity:1;"/>
<stop offset="1" style="stop-color:rgb(0%,100%,100%);stop-opacity:1;"/>
</linearGradient>
<clipPath id="clip1">
  <rect x="0" y="0" width="32" height="32"/>
</clipPath>
<g id="surface5" clip-path="url(#clip1)">
<path style=" stroke:none;fill-rule:nonzero;fill:url(#linear0);" d="M 1.886719 2.789062 L 30.117188 2.789062 C 31.160156 2.789062 32.003906 3.632812 32.003906 4.675781 L 32.003906 27.335938 C 32.003906 28.378906 31.160156 29.222656 30.117188 29.222656 L 1.886719 29.222656 C 0.847656 29.222656 0.00390625 28.378906 0.00390625 27.335938 L 0.00390625 4.675781 C 0.00390625 3.632812 0.847656 2.789062 1.886719 2.789062 Z M 1.886719 2.789062 "/>
</g>
</defs>
<g id="surface1">
<use xlink:href="#surface5" mask="url(#mask0)"/>
<path style=" stroke:none;fill-rule:nonzero;fill:rgb(97.254902%,88.235295%,88.235295%);fill-opacity:1;" d="M 24.339844 11.628906 C 24.136719 11.535156 23.898438 11.570312 23.730469 11.714844 L 20.378906 14.601562 L 20.378906 11.308594 C 20.378906 10.984375 20.113281 10.722656 19.789062 10.722656 L 7.925781 10.722656 C 7.601562 10.722656 7.335938 10.984375 7.335938 11.308594 L 7.335938 20.703125 C 7.335938 21.027344 7.601562 21.289062 7.925781 21.289062 L 19.789062 21.289062 C 20.113281 21.289062 20.378906 21.027344 20.378906 20.703125 L 20.378906 17.410156 L 23.730469 20.296875 C 23.898438 20.441406 24.136719 20.476562 24.339844 20.382812 C 24.539062 20.289062 24.671875 20.089844 24.671875 19.867188 L 24.671875 12.144531 C 24.671875 11.921875 24.539062 11.722656 24.339844 11.628906 "/>
</g>
</svg>
