<?xml version="1.0" encoding="UTF-8"?>
<svg xmlns="http://www.w3.org/2000/svg" xmlns:xlink="http://www.w3.org/1999/xlink" width="64px" height="64px" viewBox="0 0 64 64" version="1.1">
<defs>
<filter id="alpha" filterUnits="objectBoundingBox" x="0%" y="0%" width="100%" height="100%">
  <feColorMatrix type="matrix" in="SourceGraphic" values="0 0 0 0 1 0 0 0 0 1 0 0 0 0 1 0 0 0 1 0"/>
</filter>
<mask id="mask0">
  <g filter="url(#alpha)">
<rect x="0" y="0" width="64" height="64" style="fill:rgb(0%,0%,0%);fill-opacity:0.988;stroke:none;"/>
  </g>
</mask>
<linearGradient id="linear0" gradientUnits="userSpaceOnUse" x1="353.678741" y1="518.327698" x2="384.385834" y2="545.859924" gradientTransform="matrix(2.003887,0,0,1.883688,-706.260548,-969.787565)">
<stop offset="0" style="stop-color:rgb(0%,0%,50.196081%);stop-opacity:1;"/>
<stop offset="1" style="stop-color:rgb(0%,100%,100%);stop-opacity:1;"/>
</linearGradient>
<clipPath id="clip1">
  <rect x="0" y="0" width="64" height="64"/>
</clipPath>
<g id="surface5" clip-path="url(#clip1)">
<path style=" stroke:none;fill-rule:nonzero;fill:url(#linear0);" d="M 3.773438 5.582031 L 60.238281 5.582031 C 62.316406 5.582031 64.003906 7.269531 64.003906 9.347656 L 64.003906 54.675781 C 64.003906 56.753906 62.316406 58.441406 60.238281 58.441406 L 3.773438 58.441406 C 1.691406 58.441406 0.00390625 56.753906 0.00390625 54.675781 L 0.00390625 9.347656 C 0.00390625 7.269531 1.691406 5.582031 3.773438 5.582031 Z M 3.773438 5.582031 "/>
</g>
</defs>
<g id="surface1">
<use xlink:href="#surface5" mask="url(#mask0)"/>
<path style=" stroke:none;fill-rule:nonzero;fill:rgb(97.254902%,88.235295%,88.235295%);fill-opacity:1;" d="M 48.675781 23.257812 C 48.273438 23.074219 47.796875 23.140625 47.460938 23.429688 L 40.753906 29.203125 L 40.753906 22.617188 C 40.753906 21.96875 40.226562 21.441406 39.578125 21.441406 L 15.847656 21.441406 C 15.199219 21.441406 14.671875 21.96875 14.671875 22.617188 L 14.671875 41.40625 C 14.671875 42.054688 15.199219 42.582031 15.847656 42.582031 L 39.578125 42.582031 C 40.226562 42.582031 40.757812 42.054688 40.757812 41.40625 L 40.757812 34.820312 L 47.460938 40.59375 C 47.796875 40.882812 48.273438 40.949219 48.675781 40.765625 C 49.082031 40.578125 49.339844 40.175781 49.339844 39.730469 L 49.339844 24.289062 C 49.339844 23.84375 49.082031 23.441406 48.675781 23.257812 "/>
</g>
</svg>
